<svg width="33" height="33" viewBox="0 0 33 33" fill="none" xmlns="http://www.w3.org/2000/svg">
<g filter="url(#filter0_d_11_79)">
<circle cx="16.5" cy="12.5" r="12.5" fill="#111213"/>
<path d="M16 6.16667C19.2218 6.16667 21.8334 8.77825 21.8334 12C21.8334 15.2218 19.2218 17.8333 16 17.8333C12.7783 17.8333 10.1667 15.2218 10.1667 12C10.1667 8.77825 12.7783 6.16667 16 6.16667ZM16 7.33333C14.7623 7.33333 13.5754 7.825 12.7002 8.70017C11.825 9.57534 11.3334 10.7623 11.3334 12C11.3334 13.2377 11.825 14.4247 12.7002 15.2998C13.5754 16.175 14.7623 16.6667 16 16.6667C17.2377 16.6667 18.4247 16.175 19.2999 15.2998C20.175 14.4247 20.6667 13.2377 20.6667 12C20.6667 10.7623 20.175 9.57534 19.2999 8.70017C18.4247 7.825 17.2377 7.33333 16 7.33333ZM18.2359 9.27992C18.3029 9.23298 18.3842 9.21117 18.4656 9.21832C18.547 9.22547 18.6233 9.26112 18.681 9.319C18.7386 9.3766 18.7739 9.45276 18.7807 9.53393C18.7874 9.61511 18.7651 9.69604 18.7178 9.76233C17.4461 11.5392 16.7461 12.4912 16.6189 12.6189C16.4547 12.7828 16.2321 12.8749 16 12.8749C15.768 12.8749 15.5454 12.7828 15.3811 12.6189C15.2172 12.4547 15.1251 12.2321 15.1251 12C15.1251 11.7679 15.2172 11.5453 15.3811 11.3811C15.5993 11.1635 16.5507 10.4629 18.2359 9.27992ZM19.2084 11.4167C19.3631 11.4167 19.5114 11.4781 19.6208 11.5875C19.7302 11.6969 19.7917 11.8453 19.7917 12C19.7917 12.1547 19.7302 12.3031 19.6208 12.4125C19.5114 12.5219 19.3631 12.5833 19.2084 12.5833C19.0536 12.5833 18.9053 12.5219 18.7959 12.4125C18.6865 12.3031 18.625 12.1547 18.625 12C18.625 11.8453 18.6865 11.6969 18.7959 11.5875C18.9053 11.4781 19.0536 11.4167 19.2084 11.4167ZM12.7917 11.4167C12.9464 11.4167 13.0948 11.4781 13.2042 11.5875C13.3136 11.6969 13.375 11.8453 13.375 12C13.375 12.1547 13.3136 12.3031 13.2042 12.4125C13.0948 12.5219 12.9464 12.5833 12.7917 12.5833C12.637 12.5833 12.4886 12.5219 12.3792 12.4125C12.2698 12.3031 12.2084 12.1547 12.2084 12C12.2084 11.8453 12.2698 11.6969 12.3792 11.5875C12.4886 11.4781 12.637 11.4167 12.7917 11.4167ZM14.1439 9.319C14.2532 9.42854 14.3146 9.57703 14.3145 9.73183C14.3144 9.88663 14.2528 10.035 14.1433 10.1444C14.0337 10.2538 13.8852 10.3152 13.7304 10.3151C13.5756 10.315 13.4272 10.2534 13.3179 10.1438C13.2637 10.0896 13.2207 10.0252 13.1915 9.95439C13.1622 9.88356 13.1471 9.80765 13.1472 9.73101C13.1473 9.65436 13.1624 9.57847 13.1918 9.50768C13.2212 9.43689 13.2642 9.37258 13.3184 9.31842C13.428 9.20904 13.5765 9.14765 13.7313 9.14776C13.8079 9.14781 13.8838 9.16297 13.9546 9.19235C14.0254 9.22173 14.0897 9.26477 14.1439 9.319ZM16 8.20833C16.1547 8.20833 16.3031 8.26979 16.4125 8.37919C16.5219 8.48859 16.5834 8.63696 16.5834 8.79167C16.5834 8.94638 16.5219 9.09475 16.4125 9.20415C16.3031 9.31354 16.1547 9.375 16 9.375C15.8453 9.375 15.6969 9.31354 15.5875 9.20415C15.4781 9.09475 15.4167 8.94638 15.4167 8.79167C15.4167 8.63696 15.4781 8.48859 15.5875 8.37919C15.6969 8.26979 15.8453 8.20833 16 8.20833Z" fill="white"/>
</g>
<defs>
<filter id="filter0_d_11_79" x="0" y="0" width="33" height="33" filterUnits="userSpaceOnUse" color-interpolation-filters="sRGB">
<feFlood flood-opacity="0" result="BackgroundImageFix"/>
<feColorMatrix in="SourceAlpha" type="matrix" values="0 0 0 0 0 0 0 0 0 0 0 0 0 0 0 0 0 0 127 0" result="hardAlpha"/>
<feOffset dy="4"/>
<feGaussianBlur stdDeviation="2"/>
<feComposite in2="hardAlpha" operator="out"/>
<feColorMatrix type="matrix" values="0 0 0 0 0 0 0 0 0 0 0 0 0 0 0 0 0 0 0.25 0"/>
<feBlend mode="normal" in2="BackgroundImageFix" result="effect1_dropShadow_11_79"/>
<feBlend mode="normal" in="SourceGraphic" in2="effect1_dropShadow_11_79" result="shape"/>
</filter>
</defs>
</svg>
